<svg width="24" height="24" viewBox="0 0 24 24" fill="none" xmlns="http://www.w3.org/2000/svg">
<path fill-rule="evenodd" clip-rule="evenodd" d="M2 0C0.895431 0 0 0.89543 0 2V22C0 23.1046 0.89543 24 2 24H8.41723C8.35176 23.9999 8.2805 23.9932 8.20313 23.9787L8.61109 23.9778C8.55365 23.9921 8.48988 23.9999 8.41936 24H22C23.1046 24 24 23.1046 24 22V2C24 0.895431 23.1046 0 22 0H2ZM15.5924 23.9631C15.2797 23.8841 15.163 23.6131 15.163 23.3754C15.163 23.2429 15.1647 23.0094 15.167 22.6965C15.1716 22.0617 15.1785 21.1001 15.1785 19.9926C15.1785 18.8355 14.7754 18.0778 14.3413 17.7072C17.1009 17.4035 20 16.3587 20 11.6129C20 10.2643 19.5194 9.16279 18.7287 8.29805C18.8528 7.98612 19.2714 6.73019 18.6047 5.02851C18.6047 5.02851 17.566 4.69702 15.2095 6.29473C14.2173 6.01987 13.1631 5.88398 12.1089 5.87781C11.0547 5.88398 10.0005 6.01987 9.00826 6.29473C6.63627 4.69702 5.59756 5.02851 5.59756 5.02851C4.93092 6.73019 5.34951 7.98612 5.48904 8.29805C4.69321 9.16279 4.21261 10.2643 4.21261 11.6129C4.21261 16.3463 7.10757 17.4087 9.86197 17.7175C9.50746 18.0264 9.18809 18.5709 9.07647 19.3698C8.36746 19.6858 6.57013 20.2315 5.46423 18.3424C5.46423 18.3424 4.81 17.1565 3.56458 17.07C3.56458 17.07 2.3543 17.0546 3.47776 17.8205C3.47776 17.8205 4.29323 18.2014 4.85754 19.6272C4.85754 19.6272 5.58516 22.0299 9.03513 21.2846C9.038 21.8563 9.04246 22.3502 9.04586 22.7266C9.04859 23.0281 9.05063 23.2542 9.05063 23.3847C9.05063 23.6274 8.92638 23.8994 8.61109 23.9778L15.5924 23.9631ZM16.0157 23.9622C15.8461 23.9951 15.7063 23.9918 15.5924 23.9631L16.0157 23.9622Z" fill="#03989E"/>
</svg>
