<svg width="24" height="24" viewBox="0 0 24 24" fill="none" xmlns="http://www.w3.org/2000/svg">
    <path fill-rule="evenodd" clip-rule="evenodd" d="M1.00684 0.26416C0.405273 0.608887 0 1.25732 0 2V22C0 23.1045 0.895508 24 2 24H22C23.1045 24 24 23.1045 24 22V2C24 0.895508 23.1045 0 22 0H2C1.63867 0 1.2998 0.0961914 1.00684 0.26416ZM12.9873 3.95752L14.2627 3L19 9.44092L17.7275 10.3989L12.9873 3.95752ZM10.3242 6.79639L11.3398 5.56348L17.4414 10.7012L16.4258 11.9341L10.3242 6.79639ZM8.33203 10.3672L9.00391 8.91211L16.1992 12.2998L15.5293 13.7549L8.33203 10.3672ZM7.30469 14.127L7.63086 12.5571L15.4004 14.209L15.0732 15.7778L7.30469 14.127ZM4 21V14.6025L5.58105 14.603V19.4004H16.6533V14.6025H18.2354V21H4ZM7.16406 17.7998V16.2021H15.0713V17.7998H7.16406Z" fill="#03989E" />
</svg>
    