<svg width="24" height="24" viewBox="0 0 24 24" fill="none" xmlns="http://www.w3.org/2000/svg">
    <path fill-rule="evenodd" clip-rule="evenodd" d="M2 0C0.895508 0 0 0.895508 0 2V22C0 22.5337 0.208984 23.0186 0.549805 23.377C0.914062 23.7607 1.42969 24 2 24H22C23.1045 24 24 23.1045 24 22V2C24 0.895508 23.1045 0 22 0H2ZM17.5361 7.01465C17.4697 7.00244 17.4102 6.99902 17.3701 7C16.9189 7.0083 16.2266 7.24902 12.8945 8.63525C12.126 8.95459 10.8525 9.49902 9.07422 10.2686C8.15137 10.668 7.0918 11.1279 5.89648 11.6489C5.32812 11.875 5.03027 12.0962 5.00293 12.312C4.95703 12.6768 5.41309 12.8208 6.03516 13.0166L6.2998 13.1011C6.91309 13.3003 7.7373 13.5332 8.16504 13.541C8.55371 13.5513 8.9873 13.3911 9.4668 13.061C12.7354 10.856 14.4219 9.74023 14.5283 9.71631C14.5557 9.70996 14.5859 9.70361 14.6172 9.70068C14.6738 9.69482 14.7324 9.7002 14.7773 9.74023C14.8467 9.80225 14.8398 9.91992 14.833 9.95215C14.7734 10.2051 11.7031 12.998 11.5264 13.1821C11.4326 13.2793 11.3369 13.3716 11.2451 13.46C10.6758 14.0083 10.248 14.4204 11.2686 15.0923C12.293 15.7681 12.8906 16.1992 13.9463 16.8921C14.0869 16.9844 14.2217 17.0801 14.3525 17.1733C14.8496 17.5273 15.2959 17.8452 15.8457 17.7939C16.167 17.7651 16.498 17.4639 16.666 16.564C17.0645 14.439 17.8457 9.83496 18.0264 7.93701C18.042 7.771 18.0225 7.55811 18.0059 7.46533C17.9922 7.33936 17.9307 7.22314 17.835 7.14014C17.749 7.06982 17.6348 7.03271 17.5361 7.01465Z" fill="#03989E" />
</svg>
    